<?xml version="1.0" encoding="UTF-8"?>
<svg width="96px" height="47px" viewBox="0 0 96 47" version="1.1" xmlns="http://www.w3.org/2000/svg" xmlns:xlink="http://www.w3.org/1999/xlink">
    <!-- Generator: Sketch 47.1 (45422) - http://www.bohemiancoding.com/sketch -->
    <title>bricks</title>
    <desc>Created with Sketch.</desc>
    <defs></defs>
    <g id="Symbols" stroke="none" stroke-width="1" fill="none" fill-rule="evenodd">
        <g id="bricks" fill-rule="nonzero" fill="#000000">
            <g id="Shape">
                <path d="M94.2222222,43.2 L92.4444444,43.2 L92.4444444,30.6 C92.4444444,29.6046 91.6497778,28.8 90.6666667,28.8 L78.2222222,28.8 L78.2222222,16.2 C78.2222222,15.2064 77.4275556,14.4 76.4444444,14.4 L64,14.4 L64,1.8 C64,0.8064 63.2053333,0 62.2222222,0 L33.7777778,0 C32.7964444,0 32,0.8064 32,1.8 L32,14.4 L19.5555556,14.4 C18.5742222,14.4 17.7777778,15.2064 17.7777778,16.2 L17.7777778,28.8 L5.33333333,28.8 C4.352,28.8 3.55555556,29.6046 3.55555556,30.6 L3.55555556,43.2 L1.77777778,43.2 C0.796444444,43.2 0,44.0046 0,45 C0,45.9954 0.796444444,46.8 1.77777778,46.8 L94.2222222,46.8 C95.2053333,46.8 96,45.9954 96,45 C96,44.0046 95.2053333,43.2 94.2222222,43.2 Z M74.6666667,28.8 L49.7777778,28.8 L49.7777778,18 L74.6666667,18 L74.6666667,28.8 Z M35.5555556,3.6 L60.4444444,3.6 L60.4444444,14.4 L35.5555556,14.4 L35.5555556,3.6 Z M21.3333333,18 L46.2222222,18 L46.2222222,28.8 L21.3333333,28.8 L21.3333333,18 Z M7.11111111,32.4 L32,32.4 L32,43.2 L7.11111111,43.2 L7.11111111,32.4 Z M35.5555556,32.4 L60.4444444,32.4 L60.4444444,43.2 L35.5555556,43.2 L35.5555556,32.4 Z M64,43.2 L64,32.4 L88.8888889,32.4 L88.8888889,43.2 L64,43.2 Z"></path>
            </g>
        </g>
    </g>
</svg>