<?xml version="1.0" encoding="UTF-8"?>
<svg width="284px" height="151px" viewBox="0 0 284 151" version="1.1" xmlns="http://www.w3.org/2000/svg" xmlns:xlink="http://www.w3.org/1999/xlink">
    <!-- Generator: Sketch 47.1 (45422) - http://www.bohemiancoding.com/sketch -->
    <title>logo</title>
    <desc>Created with Sketch.</desc>
    <defs></defs>
    <g id="Symbols" stroke="none" stroke-width="1" fill="none" fill-rule="evenodd">
        <g id="logo">
            <g>
                <path d="M152.393,26 L146.949,26.42 L160.54,35.76 L145.132,28.93 L152.314,43.986 L142.844,30.996 L141,54.909 C145.203,54.937 149.418,54.798 153.634,54.237 C155.715,53.958 157.714,53.609 159.575,53.134 C163.423,52.147 166.988,50.767 170.686,48.28 C171.955,47.4 173.894,45.938 175.761,43.606 C177.707,41.14 178.743,38.998 179.612,36.487 C179.919,35.561 180.161,34.613 180.328,33.86 C180.768,31.757 180.914,30.339 181.016,28.573 C181.06,27.717 181.086,26.858 181.075,26 L152.393,26" id="Fill-3" fill="#DE4B17"></path>
                <polygon id="Fill-4" fill="#DE4B17" points="103 26 103 85.454 132.743 85.454 132.743 54.909 140.556 54.909 139.174 30.588 129.434 43.948 136.616 28.892 121.208 35.722 134.734 26.426 129.212 26"></polygon>
                <path d="M141,0.00201927395 L142.458,18.9140193 L151.834,5.27101927 L145.004,20.6790193 L160.06,13.4960193 L146.603,23.3070193 L154.577,23.7600193 L180.607,23.7600193 C180.175,19.5820193 179.283,15.7400193 176.041,11.3660193 C175.463,10.6180193 174.831,9.91001927 174.217,9.29301927 C173.603,8.67501927 173.008,8.14801927 172.385,7.65501927 C170.688,6.32001927 169.224,5.47001927 167.959,4.82001927 C163.944,2.81001927 160.199,1.72901927 155.877,1.00701927 C150.93,0.214019274 145.963,-0.0249807261 141,0.00201927395" id="Fill-5" fill="#FEFEFF"></path>
                <polyline id="Fill-6" fill="#FEFEFF" points="140.308 0 103 0 103 23.758 126.691 23.758 134.749 23.3 121.351 13.533 136.407 20.715 129.577 5.307 139.209 19.324 140.308 0"></polyline>
                <path d="M0,88 L20.861,88 C23.447,88 26.088,88.342 28.219,89.341 C30.35,90.34 31.967,91.848 32.999,93.787 C34.031,95.727 34.479,98.098 34.464,100.516 C34.448,102.933 33.968,105.397 32.846,107.429 C31.723,109.461 29.956,111.062 27.609,112.124 C25.261,113.187 22.338,113.543 19.476,113.543 L12.606,113.543 L12.606,128.614 L0,128.614 L0,88 Z M12.606,105.315 L15.681,105.315 C16.992,105.315 18.332,105.215 19.363,104.832 C21.636,103.969 22.211,102.316 22.246,100.838 C22.255,100.027 22.068,99.224 21.664,98.51 C21.261,97.796 20.64,97.171 19.682,96.76 C17.726,95.973 14.982,96.332 12.606,96.256 L12.606,105.315 L12.606,105.315 Z" id="Fill-7" fill="#FEFEFF"></path>
                <path d="M40,99.6765413 L50.556,99.6765413 L50.556,104.496541 C51.075,103.300541 51.779,102.177541 52.512,101.326541 C54.75,98.6555413 57.785,98.7015413 60.381,99.4185413 C61.3,99.6855413 62.258,100.074541 63.161,100.562541 L59.67,108.596541 C58.382,108.087541 57.438,107.737541 56.397,107.768541 C55.37,107.877541 54.025,107.933541 52.919,109.860541 C52.435,110.725541 51.998,111.987541 51.707,113.618541 C51.415,115.248541 51.331,117.247541 51.331,119.235541 L51.331,129.097541 L40,129.097541 L40,99.6765413" id="Fill-8" fill="#FEFEFF"></path>
                <path d="M99.0800106,117.188099 L76.4740106,117.188099 C76.6380106,118.623099 76.9270106,120.034099 77.9930106,121.293099 C79.2130106,122.859099 81.8210106,123.518099 83.8320106,122.936099 C85.2220106,122.564099 86.2050106,121.896099 87.3340106,120.457099 L98.4430106,121.483099 C97.4760106,123.305099 96.1560106,124.946099 94.6360106,126.227099 C93.1160106,127.508099 91.3960106,128.431099 89.2500106,128.990099 C87.1040106,129.549099 84.5310106,129.745099 82.1090106,129.765099 C79.6860106,129.785099 77.4130106,129.629099 75.3020106,129.042099 C73.1910106,128.454099 71.2430106,127.436099 69.6510106,125.942099 C68.0590106,124.449099 66.8230106,122.481099 66.0370106,120.483099 C65.2500106,118.485099 64.9130106,116.459099 65.0190106,114.039099 C65.1250106,111.619099 65.6730106,108.806099 66.9660106,106.421099 C68.2590106,104.035099 70.2970106,102.076099 72.8620106,100.854099 C75.4270106,99.6310986 78.5190106,99.1440986 81.2990106,99.0270986 C84.0780106,98.9110986 86.5450106,99.1640986 88.8270106,99.8520986 C91.1080106,100.539099 93.2060106,101.660099 94.8100106,103.256099 C96.4140106,104.853099 97.5240106,106.924099 98.2270106,109.118099 C99.0640106,111.719099 99.1030106,114.481099 99.0800106,117.188099 Z M87.6110106,111.786099 C87.5580106,110.564099 87.2420106,109.340099 86.7520106,108.387099 C85.7260106,106.332099 83.8450106,105.707099 82.1500106,105.692099 C81.2570106,105.684099 80.4180106,105.853099 79.6840106,106.223099 C78.9500106,106.593099 78.3200106,107.165099 77.8720106,107.736099 C76.9290106,108.959099 76.6660106,110.322099 76.5020106,111.786099 L87.6110106,111.786099 L87.6110106,111.786099 Z" id="Fill-9" fill="#FEFEFF"></path>
                <path d="M137.021831,118.781558 C136.700831,120.222558 136.124831,121.604558 135.253831,122.979558 C134.383831,124.354558 133.218831,125.724558 131.752831,126.806558 C128.740831,129.065558 124.694831,129.781558 120.989831,129.752558 C119.093831,129.764558 117.232831,129.658558 115.414831,129.366558 C113.596831,129.074558 111.821831,128.596558 110.178831,127.696558 C108.535831,126.797558 107.023831,125.477558 105.890831,124.061558 C103.646831,121.354558 102.972831,117.904558 103.000831,114.657558 C102.997831,113.104558 103.115831,111.707558 103.369831,110.435558 C103.624831,109.163558 104.015831,108.017558 104.532831,106.983558 C105.049831,105.950558 105.692831,105.028558 106.444831,104.186558 C107.196831,103.343558 108.056831,102.579558 108.940831,101.929558 C109.823831,101.279558 110.730831,100.742558 111.817831,100.309558 C112.905831,99.8775584 114.173831,99.5495584 115.592831,99.3185584 C117.012831,99.0885584 118.583831,98.9555584 120.751831,99.0135584 C122.918831,99.0715584 125.683831,99.3205584 127.954831,100.053558 C130.225831,100.785558 132.002831,102.001558 133.414831,103.571558 C134.826831,105.140558 135.872831,107.063558 136.439831,109.113558 L125.828831,110.526558 C125.655831,109.759558 125.301831,109.031558 124.817831,108.447558 C124.334831,107.863558 123.720831,107.424558 122.974831,107.130558 C121.597831,106.582558 119.281831,106.428558 117.195831,107.639558 C116.223831,108.241558 115.431831,109.192558 114.930831,110.445558 C114.429831,111.698558 114.218831,113.253558 114.220831,114.732558 C114.222831,116.211558 114.437831,117.616558 114.937831,118.757558 C115.965831,121.177558 118.269831,122.143558 120.213831,122.186558 C121.218831,122.222558 122.129831,122.046558 122.931831,121.695558 C123.734831,121.345558 124.429831,120.820558 125.005831,120.110558 C125.581831,119.400558 126.038831,118.506558 126.299831,117.562558 L137.021831,118.781558" id="Fill-10" fill="#FEFEFF"></path>
                <path d="M142,88 L153.275,88 L153.275,95.674 L142,95.674 L142,88 Z M142,99.193 L153.275,99.193 L153.275,128.614 L142,128.614 L142,99.193 L142,99.193 Z" id="Fill-11" fill="#FEFEFF"></path>
                <path d="M170.193,119.862317 C170.427,120.650317 170.829,121.393317 171.322,121.970317 C172.309,123.188317 173.904,123.560317 175.385,123.573317 C176.137,123.584317 176.819,123.509317 177.416,123.347317 C178.013,123.186317 178.524,122.938317 178.975,122.606317 C179.983,121.834317 180.244,120.828317 179.615,119.713317 C179.396,119.384317 179.058,119.109317 178.603,118.895317 C178.149,118.680317 177.578,118.528317 176.761,118.348317 C175.945,118.167317 174.883,117.959317 173.304,117.668317 C171.726,117.377317 169.63,117.003317 167.88,116.546317 C166.129,116.089317 164.724,115.550317 163.579,114.712317 C161.18,112.906317 160.207,110.373317 160.247,108.143317 C160.247,106.960317 160.455,105.732317 161.066,104.534317 C161.678,103.336317 162.693,102.167317 164.036,101.282317 C165.38,100.396317 167.053,99.7953171 168.859,99.4493171 C170.664,99.1033171 172.603,99.0133171 174.545,99.0013171 C176.488,98.9893171 178.434,99.0563171 180.142,99.3263171 C181.85,99.5963171 183.32,100.068317 184.542,100.787317 C185.764,101.506317 186.738,102.471317 187.52,103.515317 C188.302,104.559317 188.891,105.681317 189.281,106.869317 L178.587,107.921317 C178.383,106.818317 177.127,105.445317 175.714,105.173317 C174.767,104.917317 173.327,104.821317 171.993,105.226317 C170.407,105.825317 169.962,107.070317 170.615,108.238317 C170.811,108.525317 171.102,108.763317 171.547,108.963317 C171.991,109.163317 172.59,109.325317 173.401,109.478317 C174.213,109.630317 175.238,109.773317 176.798,109.981317 C178.359,110.190317 180.454,110.464317 182.295,110.932317 C184.136,111.400317 185.722,112.062317 186.946,112.980317 C189.4,114.880317 190.314,117.383317 190.277,119.567317 C190.272,120.691317 190.065,121.840317 189.498,123.091317 C188.931,124.342317 188.003,125.694317 186.613,126.773317 C185.223,127.852317 183.372,128.658317 181.338,129.139317 C179.305,129.620317 177.089,129.776317 174.501,129.749317 C171.913,129.723317 168.952,129.513317 166.64,128.865317 C164.329,128.217317 162.667,127.130317 161.421,125.747317 C160.176,124.364317 159.347,122.685317 159,120.914317 L170.193,119.862317" id="Fill-12" fill="#FEFEFF"></path>
                <path d="M196,88 L207.275,88 L207.275,95.674 L196,95.674 L196,88 Z M196,99.193 L207.275,99.193 L207.275,128.614 L196,128.614 L196,99.193 L196,99.193 Z" id="Fill-13" fill="#FEFEFF"></path>
                <path d="M215.032682,106.516168 C216.375682,104.136168 218.451682,102.153168 221.035682,100.889168 C223.620682,99.6251681 226.713682,99.0791681 229.590682,99.0081681 C232.468682,98.9361681 235.129682,99.3401681 237.412682,100.220168 C239.695682,101.101168 241.601682,102.459168 242.998682,103.941168 C244.395682,105.423168 245.284682,107.028168 245.908682,108.777168 C246.532682,110.526168 246.891682,112.418168 246.785682,114.760168 C246.679682,117.101168 246.108682,119.892168 244.787682,122.277168 C243.466682,124.663168 241.395682,126.644168 238.782682,127.891168 C236.168682,129.138168 233.013682,129.651168 230.347682,129.742168 C227.681682,129.833168 225.505682,129.502168 223.545682,128.889168 C221.585682,128.277168 219.840682,127.382168 218.261682,126.058168 C216.683682,124.734168 215.270682,122.979168 214.332682,120.973168 C213.395682,118.967168 212.933682,116.708168 213.007682,114.191168 C213.081682,111.673168 213.690682,108.896168 215.032682,106.516168 Z M224.949682,118.610168 C225.408682,119.800168 226.138682,120.687168 227.008682,121.270168 C227.878682,121.853168 228.889682,122.133168 229.903682,122.135168 C230.916682,122.138168 231.933682,121.864168 232.802682,121.285168 C233.671682,120.707168 234.393682,119.823168 234.844682,118.611168 C235.294682,117.399168 235.473682,115.858168 235.469682,114.360168 C235.465682,112.862168 235.280682,111.406168 234.827682,110.241168 C234.373682,109.075168 233.652682,108.201168 232.800682,107.622168 C231.949682,107.043168 230.967682,106.760168 229.960682,106.760168 C228.954682,106.759168 227.923682,107.041168 227.040682,107.627168 C226.157682,108.214168 225.422682,109.105168 224.959682,110.290168 C224.496682,111.475168 224.306682,112.954168 224.304682,114.440168 C224.303682,115.927168 224.491682,117.420168 224.949682,118.610168 L224.949682,118.610168 Z" id="Fill-14" fill="#FEFEFF"></path>
                <path d="M252,99.6685618 L262.499,99.6685618 L262.499,104.460562 C263.401,103.266562 264.471,102.194562 265.569,101.361562 C266.667,100.529562 267.793,99.9365618 269.061,99.5405618 C270.329,99.1455618 271.738,98.9485618 273.381,99.0115618 C275.024,99.0735618 276.899,99.3955618 278.448,100.225562 C279.996,101.055562 281.218,102.394562 282.029,104.182562 C282.84,105.970562 283.111,108.203562 283.111,110.389562 L283.111,129.089562 L271.78,129.089562 L271.78,112.910562 C271.78,111.903562 271.698,110.871562 271.381,110.073562 C271.065,109.274562 270.585,108.710562 269.972,108.347562 C268.857,107.697562 267.039,107.545562 265.445,108.556562 C264.727,109.044562 264.142,109.815562 263.755,110.936562 C263.369,112.056562 263.275,113.524562 263.275,114.960562 L263.275,129.089562 L252,129.089562 L252,99.6685618" id="Fill-15" fill="#FEFEFF"></path>
                <path d="M14.431739,145.231968 C14.296739,145.934968 14.041739,146.614968 13.666739,147.271968 C13.290739,147.928968 12.794739,148.562968 12.179739,149.050968 C10.775739,150.139968 9.21573903,150.348968 7.62973903,150.341968 C6.75073903,150.340968 5.78873903,150.277968 4.86073903,150.023968 C3.93173903,149.770968 3.03673903,149.326968 2.27673903,148.618968 C1.51673903,147.910968 0.890739032,146.937968 0.503739032,145.896968 C0.116739032,144.854968 -0.0322609684,143.742968 0.00573903162,142.463968 C0.0437390316,141.183968 0.269739032,139.736968 0.841739032,138.548968 C1.99273903,135.992968 4.89673903,135.032968 7.33773903,135.004968 C8.59573903,134.968968 9.69573903,135.128968 10.621739,135.473968 C11.547739,135.818968 12.299739,136.348968 12.916739,137.060968 C13.533739,137.772968 14.015739,138.666968 14.290739,139.615968 L10.242739,140.515968 C10.009739,139.868968 9.96473903,139.547968 9.20873903,138.931968 C8.59373903,138.514968 8.15273903,138.419968 7.51473903,138.434968 C7.12873903,138.450968 6.64873903,138.533968 6.23773903,138.743968 C5.21073903,139.332968 4.91673903,140.126968 4.73873903,140.948968 C4.63773903,141.445968 4.58873903,142.025968 4.59673903,142.761968 C4.60473903,143.497968 4.67073903,144.388968 4.88173903,145.064968 C5.36073903,146.570968 6.46973903,146.870968 7.43273903,146.901968 C7.96473903,146.910968 8.48073903,146.813968 8.89373903,146.586968 C9.82673903,146.040968 10.219739,144.987968 10.414739,144.017968 L14.431739,145.231968" id="Fill-16" fill="#FEFEFF"></path>
                <path d="M16.7476047,141.745914 C17.7846047,139.819914 20.0836047,139.017914 22.0656047,139.002914 C23.1166047,138.976914 24.0886047,139.124914 24.9226047,139.445914 C25.7566047,139.767914 26.4526047,140.263914 26.9626047,140.805914 C27.4736047,141.346914 27.7976047,141.932914 28.0256047,142.571914 C28.4826047,143.770914 28.5646047,145.691914 27.6166047,147.502914 C26.7026047,149.322914 24.3246047,150.214914 22.3416047,150.229914 C21.3686047,150.262914 20.5736047,150.141914 19.8576047,149.917914 C19.1416047,149.694914 18.5036047,149.367914 17.9276047,148.883914 C17.3506047,148.399914 16.8346047,147.759914 16.4926047,147.026914 C15.8456047,145.667914 15.7446047,143.618914 16.7476047,141.745914 Z M20.3706047,146.163914 C21.0056047,147.551914 22.1266047,147.745914 23.2386047,147.140914 C23.9996047,146.660914 24.2206047,145.586914 24.2126047,144.610914 C24.2116047,144.063914 24.1436047,143.531914 23.9786047,143.106914 C23.3276047,141.717914 22.2386047,141.546914 21.1336047,142.151914 C20.3536047,142.656914 20.1316047,143.685914 20.1346047,144.640914 C20.1346047,145.182914 20.2026047,145.728914 20.3706047,146.163914 L20.3706047,146.163914 Z" id="Fill-17" fill="#FEFEFF"></path>
                <path d="M30,139.240595 L33.836,139.240595 L33.836,140.990595 C35.237,139.243595 36.42,138.985595 37.811,139.000595 C38.411,139.022595 39.096,139.140595 39.661,139.443595 C40.983,140.139595 41.388,141.733595 41.365,143.156595 L41.365,149.986595 L37.226,149.986595 L37.226,144.077595 C37.226,143.709595 37.196,143.332595 37.08,143.040595 C36.573,142.029595 35.786,142.048595 34.912,142.486595 C34.269,142.899595 34.103,143.907595 34.119,144.825595 L34.119,149.986595 L30,149.986595 L30,139.240595" id="Fill-18" fill="#FEFEFF"></path>
                <path d="M47.088,146.631293 C47.174,146.919293 47.32,147.190293 47.501,147.401293 C48.144,148.112293 49.294,148.228293 50.296,147.633293 C50.684,147.272293 50.991,146.848293 50.16,146.277293 C49.513,146.033293 49.099,146.003293 48.225,145.829293 C47.648,145.723293 46.883,145.586293 46.243,145.419293 C45.604,145.253293 45.091,145.056293 44.673,144.750293 C43.335,143.672293 43.192,142.315293 43.755,141.032293 C43.978,140.594293 44.349,140.167293 44.839,139.844293 C46.441,138.852293 48.537,138.917293 50.722,139.130293 C51.346,139.228293 51.883,139.401293 52.33,139.663293 C53.299,140.262293 53.789,141.098293 54.06,141.885293 L50.154,142.269293 C50.098,141.656293 49.116,141.111293 48.452,141.186293 C48.09,141.222293 47.747,141.123293 47.289,141.599293 C47.118,141.907293 46.915,142.267293 47.583,142.650293 C48.237,142.891293 48.639,142.894293 49.501,143.022293 C50.071,143.098293 50.837,143.198293 51.509,143.369293 C52.181,143.540293 52.761,143.782293 53.208,144.117293 C54.602,145.267293 54.641,146.622293 54.14,147.810293 C53.933,148.267293 53.594,148.761293 53.086,149.155293 C52.578,149.549293 51.902,149.844293 51.159,150.019293 C50.417,150.195293 49.607,150.252293 48.662,150.242293 C47.717,150.233293 46.635,150.156293 45.79,149.919293 C44.946,149.683293 44.339,149.285293 43.884,148.780293 C43.429,148.275293 43.126,147.662293 43,147.015293 L47.088,146.631293" id="Fill-19" fill="#FEFEFF"></path>
                <path d="M61.647,135 L61.647,139.089 L63.913,139.089 L63.913,142.104 L61.647,142.104 C61.656,143.552 61.615,144.872 61.675,146.448 C61.647,146.72 61.989,147.226 62.503,147.164 C62.852,147.161 63.308,147.048 63.762,146.901 L64.065,149.744 C62.448,150.066 61.245,150.243 59.554,149.912 C59.051,149.777 58.619,149.537 58.303,149.179 C57.611,148.391 57.501,147.092 57.518,145.884 L57.518,142.104 L56,142.104 L56,139.089 L57.518,139.089 L57.518,137.115 L61.647,135" id="Fill-20" fill="#FEFEFF"></path>
                <path d="M66,139.263921 L69.856,139.263921 L69.856,141.023921 C70.045,140.587921 70.302,140.176921 70.57,139.865921 C71.715,138.602921 73.107,138.912921 74.46,139.586921 L73.185,142.521921 C72.252,142.225921 71.687,141.759921 70.719,142.983921 C70.295,143.706921 70.121,145.109921 70.139,146.407921 L70.139,150.009921 L66,150.009921 L66,139.263921" id="Fill-21" fill="#FEFEFF"></path>
                <path d="M87.3649137,149.746 L83.5189137,149.746 L83.5189137,148.006 C82.1169137,149.756 80.9419137,150 79.5469137,149.986 C78.9479137,149.963 78.2659137,149.845 77.7019137,149.542 C76.3849137,148.847 75.9779137,147.259 76.0009137,145.84 L76.0009137,139 L80.1399137,139 L80.1399137,144.909 C80.1399137,145.278 80.1699137,145.655 80.2859137,145.948 C80.7889137,146.965 81.5819137,146.95 82.4479137,146.509 C83.0919137,146.096 83.2629137,145.09 83.2459137,144.171 L83.2459137,139 L87.3649137,139 L87.3649137,149.746" id="Fill-22" fill="#FEFEFF"></path>
                <path d="M101.445491,146.230341 C101.328491,146.756341 101.117491,147.261341 100.800491,147.763341 C100.482491,148.266341 100.056491,148.766341 99.5204912,149.161341 C97.8284912,150.406341 95.5834912,150.351341 93.5534912,150.096341 C92.8894912,149.990341 92.2414912,149.815341 91.6404912,149.486341 C90.2934912,148.722341 89.5014912,147.559341 89.2254912,146.502341 C88.8864912,144.755341 88.7254912,142.723341 90.2764912,140.899341 C91.5174912,139.598341 92.3864912,139.345341 93.6184912,139.121341 C94.5614912,138.961341 96.4134912,138.882341 98.1334912,139.389341 C98.9634912,139.657341 99.6124912,140.101341 100.128491,140.674341 C100.644491,141.247341 101.026491,141.950341 101.233491,142.698341 L97.3574912,143.214341 C97.2944912,142.935341 97.1644912,142.668341 96.9884912,142.455341 C96.2024912,141.671341 95.3454912,141.619341 94.2034912,142.160341 C93.3874912,142.644341 93.1094912,143.765341 93.1174912,144.751341 C93.1174912,145.291341 93.1964912,145.804341 93.3794912,146.221341 C93.9604912,147.468341 95.2014912,147.703341 96.2994912,147.294341 C97.0184912,146.972341 97.3554912,146.372341 97.5294912,145.785341 L101.445491,146.230341" id="Fill-23" fill="#FEFEFF"></path>
                <path d="M108.647,135 L108.647,139.089 L110.914,139.089 L110.914,142.104 L108.647,142.104 C108.656,143.552 108.615,144.872 108.675,146.448 C108.647,146.72 108.99,147.226 109.503,147.164 C109.853,147.161 110.309,147.048 110.762,146.901 L111.066,149.744 C109.448,150.066 108.245,150.243 106.555,149.912 C106.051,149.777 105.62,149.537 105.303,149.179 C104.611,148.391 104.501,147.092 104.518,145.884 L104.518,142.104 L103,142.104 L103,139.089 L104.518,139.089 L104.518,137.115 L108.647,135" id="Fill-24" fill="#FEFEFF"></path>
                <path d="M113,135 L117.118,135 L117.118,137.803 L113,137.803 L113,135 Z M113,139.089 L117.118,139.089 L117.118,149.835 L113,149.835 L113,139.089 L113,139.089 Z" id="Fill-25" fill="#FEFEFF"></path>
                <path d="M119.747605,141.745914 C120.784605,139.819914 123.083605,139.017914 125.065605,139.002914 C126.116605,138.976914 127.088605,139.124914 127.922605,139.445914 C128.756605,139.767914 129.452605,140.263914 129.962605,140.805914 C130.473605,141.346914 130.797605,141.932914 131.025605,142.571914 C131.481605,143.770914 131.564605,145.691914 130.616605,147.502914 C129.702605,149.322914 127.324605,150.214914 125.341605,150.229914 C124.367605,150.262914 123.573605,150.141914 122.857605,149.917914 C122.141605,149.694914 121.503605,149.367914 120.927605,148.883914 C120.350605,148.399914 119.834605,147.759914 119.492605,147.026914 C118.845605,145.667914 118.744605,143.618914 119.747605,141.745914 Z M123.370605,146.163914 C124.005605,147.551914 125.126605,147.745914 126.238605,147.140914 C126.999605,146.660914 127.220605,145.586914 127.212605,144.610914 C127.211605,144.063914 127.143605,143.531914 126.978605,143.106914 C126.327605,141.717914 125.238605,141.546914 124.133605,142.151914 C123.353605,142.656914 123.131605,143.685914 123.134605,144.640914 C123.134605,145.182914 123.202605,145.728914 123.370605,146.163914 L123.370605,146.163914 Z" id="Fill-26" fill="#FEFEFF"></path>
                <path d="M133,139.240595 L136.836,139.240595 L136.836,140.990595 C138.237,139.243595 139.42,138.985595 140.81,139.000595 C141.41,139.022595 142.095,139.140595 142.661,139.443595 C143.983,140.139595 144.387,141.733595 144.364,143.156595 L144.364,149.986595 L140.226,149.986595 L140.226,144.077595 C140.226,143.709595 140.196,143.332595 140.08,143.040595 C139.573,142.029595 138.786,142.048595 137.912,142.486595 C137.269,142.899595 137.103,143.907595 137.119,144.825595 L137.119,149.986595 L133,149.986595 L133,139.240595" id="Fill-27" fill="#FEFEFF"></path>
                <path d="M158.361,144.908347 C158.452,145.506347 158.559,146.060347 158.974,146.572347 C159.665,147.401347 160.812,147.651347 162.041,147.236347 C163.099,146.749347 163.377,145.610347 162.458,144.834347 C162.252,144.674347 161.965,144.527347 161.567,144.393347 C160.828,144.135347 159.157,143.832347 157.673,143.260347 C156.944,142.973347 156.359,142.634347 155.897,142.245347 C154.429,140.999347 154.266,139.255347 154.887,137.792347 C155.131,137.254347 155.526,136.685347 156.098,136.234347 C156.67,135.784347 157.419,135.452347 158.243,135.251347 C159.066,135.051347 159.964,134.983347 160.96,135.003347 C161.956,135.023347 163.049,135.133347 163.952,135.437347 C164.855,135.741347 165.567,136.240347 166.082,136.935347 C166.597,137.630347 166.914,138.522347 166.973,139.424347 L162.652,139.677347 C162.606,139.289347 162.469,138.908347 162.271,138.609347 C161.683,137.753347 160.671,137.598347 159.544,137.903347 C158.846,138.178347 158.468,139.006347 159.13,139.565347 C159.297,139.687347 159.481,139.784347 159.74,139.871347 C159.999,139.958347 160.334,140.035347 161.05,140.200347 C161.766,140.366347 162.863,140.620347 163.79,140.938347 C164.716,141.255347 165.473,141.636347 166.031,142.107347 C167.808,143.818347 167.689,145.419347 167.072,147.150347 C166.792,147.794347 166.33,148.459347 165.7,148.972347 C165.071,149.484347 164.273,149.844347 163.444,150.063347 C162.614,150.283347 161.752,150.363347 160.624,150.339347 C159.496,150.314347 158.102,150.186347 157.058,149.770347 C154.819,148.802347 154.142,146.858347 154,145.181347 L158.361,144.908347" id="Fill-28" fill="#FEFEFF"></path>
                <path d="M180.364914,149.746 L176.519914,149.746 L176.519914,148.006 C175.117914,149.756 173.941914,150 172.547914,149.986 C171.947914,149.963 171.265914,149.845 170.701914,149.542 C169.384914,148.847 168.977914,147.259 169.000914,145.84 L169.000914,139 L173.139914,139 L173.139914,144.909 C173.139914,145.278 173.169914,145.655 173.285914,145.948 C173.788914,146.965 174.581914,146.95 175.447914,146.509 C176.091914,146.096 176.262914,145.09 176.246914,144.171 L176.246914,139 L180.364914,139 L180.364914,149.746" id="Fill-29" fill="#FEFEFF"></path>
                <path d="M186.088,146.631293 C186.174,146.919293 186.321,147.190293 186.501,147.401293 C187.144,148.112293 188.294,148.228293 189.296,147.633293 C189.684,147.272293 189.991,146.848293 189.16,146.277293 C188.513,146.033293 188.099,146.003293 187.225,145.829293 C186.648,145.723293 185.883,145.586293 185.243,145.419293 C184.604,145.253293 184.091,145.056293 183.673,144.750293 C182.335,143.672293 182.192,142.315293 182.755,141.032293 C182.978,140.594293 183.349,140.167293 183.84,139.844293 C185.441,138.852293 187.537,138.917293 189.722,139.130293 C190.346,139.228293 190.883,139.401293 191.33,139.663293 C192.299,140.262293 192.789,141.098293 193.061,141.885293 L189.154,142.269293 C189.098,141.656293 188.116,141.111293 187.452,141.186293 C187.09,141.222293 186.747,141.123293 186.289,141.599293 C186.118,141.907293 185.915,142.267293 186.583,142.650293 C187.237,142.891293 187.639,142.894293 188.501,143.022293 C189.071,143.098293 189.837,143.198293 190.509,143.369293 C191.181,143.540293 191.761,143.782293 192.208,144.117293 C193.602,145.267293 193.641,146.622293 193.14,147.810293 C192.933,148.267293 192.594,148.761293 192.086,149.155293 C191.578,149.549293 190.902,149.844293 190.159,150.019293 C189.417,150.195293 188.607,150.252293 187.662,150.242293 C186.717,150.233293 185.635,150.156293 184.791,149.919293 C183.946,149.683293 183.339,149.285293 182.884,148.780293 C182.429,148.275293 182.126,147.662293 182,147.015293 L186.088,146.631293" id="Fill-30" fill="#FEFEFF"></path>
                <path d="M199.089,146.631293 C199.174,146.919293 199.321,147.190293 199.501,147.401293 C200.145,148.112293 201.294,148.228293 202.296,147.633293 C202.685,147.272293 202.991,146.848293 202.161,146.277293 C201.514,146.033293 201.099,146.003293 200.225,145.829293 C199.649,145.723293 198.883,145.586293 198.244,145.419293 C197.604,145.253293 197.091,145.056293 196.673,144.750293 C195.336,143.672293 195.193,142.315293 195.755,141.032293 C195.978,140.594293 196.349,140.167293 196.84,139.844293 C198.441,138.852293 200.537,138.917293 202.723,139.130293 C203.347,139.228293 203.884,139.401293 204.33,139.663293 C205.299,140.262293 205.79,141.098293 206.061,141.885293 L202.155,142.269293 C202.098,141.656293 201.117,141.111293 200.452,141.186293 C200.09,141.222293 199.747,141.123293 199.29,141.599293 C199.118,141.907293 198.915,142.267293 199.583,142.650293 C200.237,142.891293 200.639,142.894293 201.501,143.022293 C202.071,143.098293 202.837,143.198293 203.509,143.369293 C204.182,143.540293 204.761,143.782293 205.208,144.117293 C206.602,145.267293 206.641,146.622293 206.14,147.810293 C205.933,148.267293 205.594,148.761293 205.086,149.155293 C204.579,149.549293 203.903,149.844293 203.16,150.019293 C202.417,150.195293 201.608,150.252293 200.662,150.242293 C199.717,150.233293 198.635,150.156293 197.791,149.919293 C196.947,149.683293 196.34,149.285293 195.885,148.780293 C195.43,148.275293 195.127,147.662293 195,147.015293 L199.089,146.631293" id="Fill-31" fill="#FEFEFF"></path>
                <path d="M220.457309,145.643779 L212.200309,145.643779 C212.260309,146.167779 212.365309,146.683779 212.755309,147.142779 C213.491309,148.007779 215.116309,148.232779 216.167309,146.837779 L220.224309,147.212779 C219.871309,147.877779 219.389309,148.477779 218.834309,148.945779 C217.120309,150.419779 214.323309,150.477779 211.772309,149.973779 C211.001309,149.758779 210.289309,149.386779 209.707309,148.841779 C209.126309,148.295779 208.674309,147.576779 208.387309,146.846779 C207.843309,145.496779 207.800309,143.569779 208.727309,141.710779 C209.688309,139.809779 212.003309,139.046779 213.962309,139.009779 C214.977309,138.967779 215.878309,139.059779 216.712309,139.310779 C217.545309,139.561779 218.311309,139.971779 218.897309,140.554779 C220.240309,141.907779 220.524309,143.887779 220.457309,145.643779 Z M216.268309,143.670779 C216.249309,143.223779 216.133309,142.776779 215.954309,142.428779 C215.380309,141.374779 214.349309,141.247779 213.372309,141.638779 C212.330309,142.278779 212.332309,142.921779 212.210309,143.670779 L216.268309,143.670779 L216.268309,143.670779 Z" id="Fill-32" fill="#FEFEFF"></path>
                <polyline id="Fill-33" fill="#FEFEFF" points="220.202 139 225.09 139 226.795 141.995 228.784 139 233.327 139 229.661 144.12 233.59 149.746 228.784 149.746 226.795 146.286 224.463 149.746 220 149.746 223.903 144.12 220.202 139"></polyline>
                <polyline id="Fill-34" fill="#FEFEFF" points="242 135 246.584 135 246.584 146.182 253.739 146.182 253.739 149.835 242 149.835 242 135"></polyline>
                <path d="M260.646,135 L260.646,139.089 L262.913,139.089 L262.913,142.104 L260.646,142.104 C260.656,143.552 260.615,144.872 260.675,146.448 C260.647,146.72 260.989,147.226 261.502,147.164 C261.852,147.161 262.308,147.048 262.761,146.901 L263.065,149.744 C261.448,150.066 260.245,150.243 258.554,149.912 C258.051,149.777 257.619,149.537 257.303,149.179 C256.611,148.391 256.501,147.092 256.518,145.884 L256.518,142.104 L255,142.104 L255,139.089 L256.518,139.089 L256.518,137.115 L260.646,135" id="Fill-35" fill="#FEFEFF"></path>
                <path d="M276.830005,135 L276.830005,149.835 L272.974005,149.835 L272.974005,148.247 C272.051005,149.402 271.416005,149.747 270.546005,149.964 C270.210005,150.052 269.858005,150.119 269.238005,150.059 C268.618005,149.999 267.730005,149.812 267.036005,149.329 C266.342005,148.846 265.840005,148.068 265.505005,147.189 C265.171005,146.311 265.002005,145.331 265.000005,144.322 C264.999005,143.312 265.164005,142.272 265.536005,141.42 C265.909005,140.568 266.489005,139.903 267.188005,139.488 C267.888005,139.073 268.707005,138.906 269.320005,138.858 C270.761005,138.831 271.480005,139.012 272.671005,140.141 L272.671005,135 L276.830005,135 Z M272.482005,143.077 C271.957005,141.917 270.905005,141.619 269.935005,142.2 C269.290005,142.631 269.111005,143.613 269.119005,144.512 C269.121005,145.02 269.177005,145.515 269.320005,145.907 C269.892005,147.193 270.848005,147.311 271.811005,146.778 C272.500005,146.346 272.711005,145.35 272.701005,144.45 C272.699005,143.947 272.636005,143.464 272.482005,143.077 L272.482005,143.077 Z" id="Fill-36" fill="#FEFEFF"></path>
                <polygon id="Fill-37" fill="#FEFEFF" points="279 150.128 283.402 150.128 283.402 146 279 146"></polygon>
            </g>
        </g>
    </g>
</svg>