<?xml version="1.0" encoding="UTF-8"?>
<svg width="100px" height="86px" viewBox="0 0 100 86" version="1.1" xmlns="http://www.w3.org/2000/svg" xmlns:xlink="http://www.w3.org/1999/xlink">
    <!-- Generator: Sketch 47.1 (45422) - http://www.bohemiancoding.com/sketch -->
    <title>metalwork</title>
    <desc>Created with Sketch.</desc>
    <defs></defs>
    <g id="Symbols" stroke="none" stroke-width="1" fill="none" fill-rule="evenodd">
        <g id="metalwork" fill-rule="nonzero" fill="#000000">
            <g id="Shape">
                <path d="M10.2670819,20.283882 C10.2719496,20.2794683 10.2662544,20.2856836 10.2472338,20.3099779 C10.2465167,20.3108922 10.2458053,20.3118279 10.2450996,20.3127846 C10.2161735,20.3236544 10.2400345,20.3084073 10.2670819,20.283882 Z M89.9134405,19.6580188 C90.3531573,20.1688365 90.154071,20.1688365 89.9134405,20.1688365 C89.9134405,19.9735179 89.9134405,19.8050808 89.9134405,19.6580188 Z M69.9932194,33.1069448 C69.5325951,32.3257213 69.7421666,32.3257213 69.9932194,32.3257213 C69.9932194,32.6419182 69.9932194,32.8876771 69.9932194,33.1069448 Z M82.726196,12.5863461 L72.6348554,3.49809944 L73.9732763,4.01195353 L67.9932194,4.01195353 L69.9932194,2.01195353 L69.9932194,18.1688365 C69.9932194,19.2750373 69.0952415,20.1711421 67.9890431,20.1688322 C67.8877882,20.1686207 67.8877882,20.1686207 67.4049158,20.1676683 C66.7432111,20.1663982 66.3736183,20.1657102 65.747795,20.1645988 C63.9596707,20.1614234 61.9575872,20.1582479 59.7894524,20.1552841 C52.7108412,20.1456077 45.5765208,20.1404012 38.9202337,20.1420226 C23.2492406,20.1458399 11.720777,20.1966869 10.3641336,20.2648115 C10.1164776,20.4871497 10.1762597,21.3601897 10.2543366,21.4229565 C10.3521748,21.5013691 10.5991237,21.5517593 11.265337,21.5548017 C11.3386598,21.5551365 11.3968254,21.555086 11.5376841,21.5547123 C11.6584372,21.5543854 11.6584372,21.5543854 11.7807017,21.5544648 L67.9932194,21.5544648 C69.0977889,21.5544648 69.9932194,22.4498953 69.9932194,23.5544648 L69.9932194,28.940093 C69.9932194,30.6661191 69.9932194,31.6545857 69.9932194,32.3257213 C70.2235975,32.3257213 70.4889061,32.3257213 70.7963701,32.3257213 L83.130233,32.3257213 C83.4376969,32.3257213 83.7030056,32.3257213 83.9333837,32.3257213 C83.9333837,31.6545857 83.9333837,30.6661191 83.9333837,28.940093 L83.9333837,23.5544648 C83.9333837,22.4498953 84.8288142,21.5544648 85.9333837,21.5544648 L88.9234121,21.5544648 C89.3171626,21.5544648 89.6417769,21.5544648 89.9134405,21.5544648 C89.9134405,21.3538688 89.9134405,21.124919 89.9134405,20.8616507 C89.9134405,20.5983823 89.9134405,20.3694325 89.9134405,20.1688365 C89.6417769,20.1688365 89.3171626,20.1688365 88.9234121,20.1688365 L85.9333837,20.1688365 C84.8288142,20.1688365 83.9333837,19.273406 83.9333837,18.1688365 L83.9333837,15.4760227 C83.9333837,14.5138816 83.9333837,14.0101039 83.9333837,13.6735375 C83.6942105,13.4581386 83.3335888,13.1333631 82.726196,12.5863461 Z M65.5778378,25.5544648 L14.1960833,25.5544648 C12.219862,25.5544648 12.219862,25.5544648 11.7759695,25.5544592 C11.40271,25.5550934 11.3332778,25.5551537 11.2470706,25.55476 C9.74379056,25.5478951 8.75280907,25.3456839 7.75049641,24.5423755 C5.89481255,23.0506396 5.66495252,19.6710618 7.09867134,17.8428841 C7.25092899,17.6484028 7.40897192,17.4759244 7.58018947,17.3206728 C7.92958866,17.0038548 8.27570198,16.8016999 8.7173128,16.6163066 C8.82149104,16.5725714 9.27725052,16.3930511 9.13356072,16.4501259 C9.25319739,16.4026052 9.37714257,16.3667459 9.50367132,16.3430471 C10.3086514,16.1922748 20.0526888,16.1466184 38.9192594,16.1420228 C45.5779567,16.1404008 52.7143267,16.1456088 59.7949204,16.1552878 C61.9636212,16.1582524 63.966247,16.1614287 65.7548984,16.1646051 C65.9932194,16.0080849 65.9932194,15.8352268 65.9932194,15.6443236 L65.9932194,2.01195353 C65.9932194,0.907384032 66.8886499,0.0119535319 67.9932194,0.0119535319 L73.9732763,0.0119535319 C74.4675878,0.0119535319 74.9443876,0.195009209 75.3116971,0.525807628 L87.2718045,11.297063 C87.6929356,11.6763331 87.9333837,12.2164662 87.9333837,12.7832089 L87.9333837,18.1688365 L85.9333837,16.1688365 L91.9134405,16.1688365 C93.01801,16.1688365 93.9134405,17.064267 93.9134405,18.1688365 L93.9134405,23.5544648 C93.9134405,24.6590343 93.01801,25.5544648 91.9134405,25.5544648 L85.9333837,25.5544648 L87.9333837,23.5544648 L87.9333837,34.3257213 C87.9333837,35.4302908 87.0379532,36.3257213 85.9333837,36.3257213 L67.9932194,36.3257213 C66.8886499,36.3257213 65.9932194,35.4302908 65.9932194,34.3257213 L65.9932194,28.940093 C65.9932194,27.2140669 65.9932194,26.2256004 65.9932194,25.5544648 C65.8653587,25.5544648 65.7272461,25.5544648 65.5778378,25.5544648 Z M65.9932194,41.2005306 C66.4858521,41.7113481 66.2628533,41.7113481 65.9932194,41.7113481 C65.9932194,41.5160296 65.9932194,41.3475925 65.9932194,41.2005306 Z M16.975876,80.7963712 L29.30974,80.7963712 C29.7161756,80.7963712 30.0489487,80.7963712 30.3247474,80.7963712 C31.5363705,75.0417556 37.755907,70.0251147 44.0730015,70.0251147 C50.3900936,70.0251147 56.6096293,75.0417559 57.8212523,80.7963712 C58.0970511,80.7963712 58.4298242,80.7963712 58.83626,80.7963712 L71.1701251,80.7963712 C71.4775893,80.7963712 71.7428981,80.7963712 71.9732763,80.7963712 C71.9732763,80.5957754 71.9732763,80.3668258 71.9732763,80.1035578 C71.9732763,79.7655831 71.9732763,79.4841673 71.9732763,79.2466905 C65.6788629,78.2224352 60.0131657,72.5570336 60.0131657,66.6394879 C60.0131657,60.099887 66.9326268,53.8682314 73.9732763,53.8682314 C78.4177139,53.8682314 81.3312863,53.7370334 84.660391,53.2040224 C90.7291627,52.2323731 94.5011512,50.257955 95.5756124,47.0969749 C95.0135646,47.0969749 94.2625304,47.0969749 93.2215763,47.0969749 L67.9932194,47.0969749 C66.8886499,47.0969749 65.9932194,46.2015444 65.9932194,45.0969749 L65.9932194,42.4041615 C65.9932194,42.1408934 65.9932194,41.9119439 65.9932194,41.7113481 C65.7561723,41.7113481 65.4830811,41.7113481 65.166709,41.7113481 L2.21261449,41.7113481 L4.21261449,39.7113481 L4.21261449,45.0969763 C4.21261449,46.8230024 4.21261449,47.811469 4.21261449,48.4826046 C4.9599841,48.4826046 6.07762148,48.4826046 8.19266977,48.4826046 L14.172725,48.4826046 C21.2133713,48.4826046 28.1328324,54.7142602 28.1328324,61.2538582 C28.1328324,67.171405 22.4671368,72.8368055 16.172725,73.8610607 C16.172725,76.1739959 16.172725,76.6718851 16.172725,79.4303541 C16.172725,79.9930306 16.172725,80.4381331 16.172725,80.7963712 C16.4031032,80.7963712 16.6684119,80.7963712 16.975876,80.7963712 Z M44.0730015,74.0251147 C39.1535383,74.0251147 34.1128909,78.5647145 34.1128909,82.7963712 C34.1128909,83.9009407 33.2174604,84.7963712 32.1128909,84.7963712 L14.172725,84.7963712 C13.0681556,84.7963712 12.172725,83.9009407 12.172725,82.7963712 L12.172725,72.0251147 C12.172725,70.9205452 13.0681556,70.0251147 14.172725,70.0251147 C19.0921866,70.0251147 24.1328324,65.4855163 24.1328324,61.2538582 C24.1328324,57.0222025 19.0921862,52.4826046 14.172725,52.4826046 L2.21261449,52.4826046 C1.10804499,52.4826046 0.212614485,51.5871741 0.212614485,50.4826046 L0.212614485,39.7113481 C0.212614485,38.6067786 1.10804499,37.7113481 2.21261449,37.7113481 L67.9932194,37.7113481 C69.0977889,37.7113481 69.9932194,38.6067786 69.9932194,39.7113481 L69.9932194,45.0969749 L67.9932194,43.0969749 L97.8934942,43.0969749 C98.9980637,43.0969749 99.8934942,43.9924054 99.8934942,45.0969749 C99.8934942,52.0380444 94.2661472,55.7170229 85.2927628,57.1537193 C81.6954039,57.7296796 78.6185214,57.8682314 73.9732763,57.8682314 C69.053812,57.8682314 64.0131657,62.4078294 64.0131657,66.6394879 C64.0131657,70.8711446 69.0538131,75.4107444 73.9732763,75.4107444 C75.0778458,75.4107444 75.9732763,76.3061749 75.9732763,77.4107444 L75.9732763,82.7963712 C75.9732763,83.9009407 75.0778458,84.7963712 73.9732763,84.7963712 L56.0331088,84.7963712 C54.9285393,84.7963712 54.0331088,83.9009407 54.0331088,82.7963712 C54.0331088,78.5647149 48.9924619,74.0251147 44.0730015,74.0251147 Z"></path>
            </g>
        </g>
    </g>
</svg>